{"nbformat":4,"nbformat_minor":0,"metadata":{"colab":{"name":"gan-faces.ipynb","provenance":[],"collapsed_sections":[],"toc_visible":true,"authorship_tag":"ABX9TyNFhUa4kiYN/xdxFnlrZHFE"},"kernelspec":{"name":"python3","display_name":"Python 3"},"language_info":{"name":"python"},"accelerator":"GPU"},"cells":[{"cell_type":"markdown","metadata":{"id":"QvUgIiQ5yxWY"},"source":["# Generative Adversarial Network (Face generator)"]},{"cell_type":"markdown","metadata":{"id":"Fuahp-a8zRo3"},"source":["*Check GPU's details*"]},{"cell_type":"code","metadata":{"colab":{"base_uri":"https://localhost:8080/"},"id":"XuAjejK4zSAo","executionInfo":{"status":"ok","timestamp":1621875134424,"user_tz":300,"elapsed":216,"user":{"displayName":"David Romero","photoUrl":"https://lh3.googleusercontent.com/-Jd7jurtBJ_U/AAAAAAAAAAI/AAAAAAAAAAY/2-9-ojiMuQQ/s64/photo.jpg","userId":"14069976265074426616"}},"outputId":"5380edad-8aca-4c01-d4e0-0c3a5db9fa84"},"source":["!nvidia-smi"],"execution_count":1,"outputs":[{"output_type":"stream","text":["Mon May 24 16:52:14 2021       \n","+-----------------------------------------------------------------------------+\n","| NVIDIA-SMI 465.19.01    Driver Version: 460.32.03    CUDA Version: 11.2     |\n","|-------------------------------+----------------------+----------------------+\n","| GPU  Name        Persistence-M| Bus-Id        Disp.A | Volatile Uncorr. ECC |\n","| Fan  Temp  Perf  Pwr:Usage/Cap|         Memory-Usage | GPU-Util  Compute M. |\n","|                               |                      |               MIG M. |\n","|===============================+======================+======================|\n","|   0  Tesla T4            Off  | 00000000:00:04.0 Off |                    0 |\n","| N/A   50C    P8    10W /  70W |      0MiB / 15109MiB |      0%      Default |\n","|                               |                      |                  N/A |\n","+-------------------------------+----------------------+----------------------+\n","                                                                               \n","+-----------------------------------------------------------------------------+\n","| Processes:                                                                  |\n","|  GPU   GI   CI        PID   Type   Process name                  GPU Memory |\n","|        ID   ID                                                   Usage      |\n","|=============================================================================|\n","|  No running processes found                                                 |\n","+-----------------------------------------------------------------------------+\n"],"name":"stdout"}]},{"cell_type":"markdown","metadata":{"id":"qjUUV6yzzV8M"},"source":["*Check Tensorflow's version*"]},{"cell_type":"code","metadata":{"id":"9TJQEzPkzTIR","colab":{"base_uri":"https://localhost:8080/"},"executionInfo":{"status":"ok","timestamp":1621875134688,"user_tz":300,"elapsed":270,"user":{"displayName":"David Romero","photoUrl":"https://lh3.googleusercontent.com/-Jd7jurtBJ_U/AAAAAAAAAAI/AAAAAAAAAAY/2-9-ojiMuQQ/s64/photo.jpg","userId":"14069976265074426616"}},"outputId":"1d3e4f59-b398-43a8-9c2f-a13e20cee289"},"source":["%tensorflow_version 1.x"],"execution_count":2,"outputs":[{"output_type":"stream","text":["TensorFlow 1.x selected.\n"],"name":"stdout"}]},{"cell_type":"markdown","metadata":{"id":"q43fUeBdzZuA"},"source":["*Import libraries*"]},{"cell_type":"code","metadata":{"id":"MIIlOErzzXbh","executionInfo":{"status":"ok","timestamp":1621875139546,"user_tz":300,"elapsed":4860,"user":{"displayName":"David Romero","photoUrl":"https://lh3.googleusercontent.com/-Jd7jurtBJ_U/AAAAAAAAAAI/AAAAAAAAAAY/2-9-ojiMuQQ/s64/photo.jpg","userId":"14069976265074426616"}}},"source":["import tensorflow as tf"],"execution_count":3,"outputs":[]},{"cell_type":"markdown","metadata":{"id":"bNIfcXBszepk"},"source":["*Print Tensorflow's version*"]},{"cell_type":"code","metadata":{"colab":{"base_uri":"https://localhost:8080/"},"id":"L3wfdoqyzb44","executionInfo":{"status":"ok","timestamp":1621875139559,"user_tz":300,"elapsed":28,"user":{"displayName":"David Romero","photoUrl":"https://lh3.googleusercontent.com/-Jd7jurtBJ_U/AAAAAAAAAAI/AAAAAAAAAAY/2-9-ojiMuQQ/s64/photo.jpg","userId":"14069976265074426616"}},"outputId":"ab4dcad5-abf6-4ec5-8f14-f2c5ee524156"},"source":["print(tf.__version__)"],"execution_count":4,"outputs":[{"output_type":"stream","text":["1.15.2\n"],"name":"stdout"}]},{"cell_type":"markdown","metadata":{"id":"x9mI4ST7zkGZ"},"source":["*Clone StyleGAN repo into the environment*"]},{"cell_type":"code","metadata":{"colab":{"base_uri":"https://localhost:8080/"},"id":"KnyGDYybznxc","executionInfo":{"status":"ok","timestamp":1621875140126,"user_tz":300,"elapsed":584,"user":{"displayName":"David Romero","photoUrl":"https://lh3.googleusercontent.com/-Jd7jurtBJ_U/AAAAAAAAAAI/AAAAAAAAAAY/2-9-ojiMuQQ/s64/photo.jpg","userId":"14069976265074426616"}},"outputId":"16866a5f-1676-4f31-a74e-7b02bc416f77"},"source":["!git clone https://github.com/NVlabs/stylegan2.git"],"execution_count":5,"outputs":[{"output_type":"stream","text":["Cloning into 'stylegan2'...\n","remote: Enumerating objects: 127, done.\u001b[K\n","remote: Total 127 (delta 0), reused 0 (delta 0), pack-reused 127\u001b[K\n","Receiving objects: 100% (127/127), 591.89 KiB | 28.18 MiB/s, done.\n","Resolving deltas: 100% (58/58), done.\n"],"name":"stdout"}]},{"cell_type":"markdown","metadata":{"id":"aYQ_PInA0LXL"},"source":["*Generate uncurated ffhq images*"]},{"cell_type":"code","metadata":{"colab":{"base_uri":"https://localhost:8080/"},"id":"3VgRNla80K_6","executionInfo":{"status":"ok","timestamp":1621875222481,"user_tz":300,"elapsed":82359,"user":{"displayName":"David Romero","photoUrl":"https://lh3.googleusercontent.com/-Jd7jurtBJ_U/AAAAAAAAAAI/AAAAAAAAAAY/2-9-ojiMuQQ/s64/photo.jpg","userId":"14069976265074426616"}},"outputId":"a9910616-37c7-447c-8fb2-2db48fe70529"},"source":["!python /content/stylegan2/run_generator.py generate-images \\\n","--network=gdrive:networks/stylegan2-ffhq-config-f.pkl \\\n","--seeds=6600-6625 --truncation-psi=0.5"],"execution_count":6,"outputs":[{"output_type":"stream","text":["Local submit - run_dir: results/00000-generate-images\n","dnnlib: Running run_generator.generate_images() on localhost...\n","Loading networks from \"gdrive:networks/stylegan2-ffhq-config-f.pkl\"...\n","Downloading https://nvlabs-fi-cdn.nvidia.com/stylegan2/networks/stylegan2-ffhq-config-f.pkl ... done\n","Setting up TensorFlow plugin \"fused_bias_act.cu\": Preprocessing... Compiling... Loading... Done.\n","Setting up TensorFlow plugin \"upfirdn_2d.cu\": Preprocessing... Compiling... Loading... Done.\n","Generating image for seed 6600 (0/26) ...\n","Generating image for seed 6601 (1/26) ...\n","Generating image for seed 6602 (2/26) ...\n","Generating image for seed 6603 (3/26) ...\n","Generating image for seed 6604 (4/26) ...\n","Generating image for seed 6605 (5/26) ...\n","Generating image for seed 6606 (6/26) ...\n","Generating image for seed 6607 (7/26) ...\n","Generating image for seed 6608 (8/26) ...\n","Generating image for seed 6609 (9/26) ...\n","Generating image for seed 6610 (10/26) ...\n","Generating image for seed 6611 (11/26) ...\n","Generating image for seed 6612 (12/26) ...\n","Generating image for seed 6613 (13/26) ...\n","Generating image for seed 6614 (14/26) ...\n","Generating image for seed 6615 (15/26) ...\n","Generating image for seed 6616 (16/26) ...\n","Generating image for seed 6617 (17/26) ...\n","Generating image for seed 6618 (18/26) ...\n","Generating image for seed 6619 (19/26) ...\n","Generating image for seed 6620 (20/26) ...\n","Generating image for seed 6621 (21/26) ...\n","Generating image for seed 6622 (22/26) ...\n","Generating image for seed 6623 (23/26) ...\n","Generating image for seed 6624 (24/26) ...\n","Generating image for seed 6625 (25/26) ...\n","dnnlib: Finished run_generator.generate_images() in 1m 19s.\n"],"name":"stdout"}]},{"cell_type":"markdown","metadata":{"id":"aRhC07KD6HDw"},"source":["*Mix images into a video file*"]},{"cell_type":"code","metadata":{"colab":{"base_uri":"https://localhost:8080/"},"id":"4-A7LE1l6Hbr","executionInfo":{"status":"ok","timestamp":1621875224412,"user_tz":300,"elapsed":1937,"user":{"displayName":"David Romero","photoUrl":"https://lh3.googleusercontent.com/-Jd7jurtBJ_U/AAAAAAAAAAI/AAAAAAAAAAY/2-9-ojiMuQQ/s64/photo.jpg","userId":"14069976265074426616"}},"outputId":"f38e5d98-b9d9-435e-947f-aaaa3ee70b82"},"source":["!ffmpeg -r 2 \\\n","-pattern_type glob -i '/content/results/00000-generate-images/seed*.png' \\\n","-vcodec mpeg4 -y people.mp4"],"execution_count":7,"outputs":[{"output_type":"stream","text":["ffmpeg version 3.4.8-0ubuntu0.2 Copyright (c) 2000-2020 the FFmpeg developers\n","  built with gcc 7 (Ubuntu 7.5.0-3ubuntu1~18.04)\n","  configuration: --prefix=/usr --extra-version=0ubuntu0.2 --toolchain=hardened --libdir=/usr/lib/x86_64-linux-gnu --incdir=/usr/include/x86_64-linux-gnu --enable-gpl --disable-stripping --enable-avresample --enable-avisynth --enable-gnutls --enable-ladspa --enable-libass --enable-libbluray --enable-libbs2b --enable-libcaca --enable-libcdio --enable-libflite --enable-libfontconfig --enable-libfreetype --enable-libfribidi --enable-libgme --enable-libgsm --enable-libmp3lame --enable-libmysofa --enable-libopenjpeg --enable-libopenmpt --enable-libopus --enable-libpulse --enable-librubberband --enable-librsvg --enable-libshine --enable-libsnappy --enable-libsoxr --enable-libspeex --enable-libssh --enable-libtheora --enable-libtwolame --enable-libvorbis --enable-libvpx --enable-libwavpack --enable-libwebp --enable-libx265 --enable-libxml2 --enable-libxvid --enable-libzmq --enable-libzvbi --enable-omx --enable-openal --enable-opengl --enable-sdl2 --enable-libdc1394 --enable-libdrm --enable-libiec61883 --enable-chromaprint --enable-frei0r --enable-libopencv --enable-libx264 --enable-shared\n","  libavutil      55. 78.100 / 55. 78.100\n","  libavcodec     57.107.100 / 57.107.100\n","  libavformat    57. 83.100 / 57. 83.100\n","  libavdevice    57. 10.100 / 57. 10.100\n","  libavfilter     6.107.100 /  6.107.100\n","  libavresample   3.  7.  0 /  3.  7.  0\n","  libswscale      4.  8.100 /  4.  8.100\n","  libswresample   2.  9.100 /  2.  9.100\n","  libpostproc    54.  7.100 / 54.  7.100\n","Input #0, image2, from '/content/results/00000-generate-images/seed*.png':\n","  Duration: 00:00:01.04, start: 0.000000, bitrate: N/A\n","    Stream #0:0: Video: png, rgb24(pc), 1024x1024, 25 fps, 25 tbr, 25 tbn, 25 tbc\n","Stream mapping:\n","  Stream #0:0 -> #0:0 (png (native) -> mpeg4 (native))\n","Press [q] to stop, [?] for help\n","Output #0, mp4, to 'people.mp4':\n","  Metadata:\n","    encoder         : Lavf57.83.100\n","    Stream #0:0: Video: mpeg4 (mp4v / 0x7634706D), yuv420p, 1024x1024, q=2-31, 200 kb/s, 2 fps, 16384 tbn, 2 tbc\n","    Metadata:\n","      encoder         : Lavc57.107.100 mpeg4\n","    Side data:\n","      cpb: bitrate max/min/avg: 0/0/200000 buffer size: 0 vbv_delay: -1\n","frame=   26 fps=0.0 q=24.8 Lsize=     873kB time=00:00:12.50 bitrate= 571.9kbits/s speed=17.4x    \n","video:872kB audio:0kB subtitle:0kB other streams:0kB global headers:0kB muxing overhead: 0.117193%\n"],"name":"stdout"}]},{"cell_type":"markdown","metadata":{"id":"Orlj594L_Rnl"},"source":["*Copy video to content*"]},{"cell_type":"code","metadata":{"colab":{"base_uri":"https://localhost:8080/"},"id":"l9qiOQfo_R_6","executionInfo":{"status":"ok","timestamp":1621875224712,"user_tz":300,"elapsed":306,"user":{"displayName":"David Romero","photoUrl":"https://lh3.googleusercontent.com/-Jd7jurtBJ_U/AAAAAAAAAAI/AAAAAAAAAAY/2-9-ojiMuQQ/s64/photo.jpg","userId":"14069976265074426616"}},"outputId":"e8d136d7-713b-48e8-e98c-00c50e9a2ae5"},"source":["!cp people.mp4 /content"],"execution_count":8,"outputs":[{"output_type":"stream","text":["cp: 'people.mp4' and '/content/people.mp4' are the same file\n"],"name":"stdout"}]},{"cell_type":"markdown","metadata":{"id":"4xXa__J-_X54"},"source":["*Change system's path*"]},{"cell_type":"code","metadata":{"id":"Q6tGvN3q_XU4","executionInfo":{"status":"ok","timestamp":1621875224713,"user_tz":300,"elapsed":10,"user":{"displayName":"David Romero","photoUrl":"https://lh3.googleusercontent.com/-Jd7jurtBJ_U/AAAAAAAAAAI/AAAAAAAAAAY/2-9-ojiMuQQ/s64/photo.jpg","userId":"14069976265074426616"}}},"source":["import sys\n","sys.path.insert(0, \"/content/stylegan2\")"],"execution_count":9,"outputs":[]},{"cell_type":"markdown","metadata":{"id":"fRsXQ8G194rG"},"source":["*Import libraries*"]},{"cell_type":"code","metadata":{"id":"yMtcaZoY93W6","executionInfo":{"status":"ok","timestamp":1621875224713,"user_tz":300,"elapsed":9,"user":{"displayName":"David Romero","photoUrl":"https://lh3.googleusercontent.com/-Jd7jurtBJ_U/AAAAAAAAAAI/AAAAAAAAAAY/2-9-ojiMuQQ/s64/photo.jpg","userId":"14069976265074426616"}}},"source":["import argparse\n","import numpy as np\n","import PIL.Image\n","import dnnlib\n","import dnnlib.tflib as tflib\n","import re\n","import sys\n","import pretrained_networks"],"execution_count":10,"outputs":[]},{"cell_type":"markdown","metadata":{"id":"ERntTI1h_kNG"},"source":["*Seeder*"]},{"cell_type":"code","metadata":{"id":"BSZqx0m-97fS","executionInfo":{"status":"ok","timestamp":1621875224714,"user_tz":300,"elapsed":9,"user":{"displayName":"David Romero","photoUrl":"https://lh3.googleusercontent.com/-Jd7jurtBJ_U/AAAAAAAAAAI/AAAAAAAAAAY/2-9-ojiMuQQ/s64/photo.jpg","userId":"14069976265074426616"}}},"source":["def seeder(seeds, vector_size):\n","    result = []\n","    for seed in seeds:\n","        rnd = np.random.RandomState(seed)\n","        result.append(rnd.randn(1, vector_size))\n","    return result"],"execution_count":11,"outputs":[]},{"cell_type":"markdown","metadata":{"id":"oWO5CGOv_v_g"},"source":["*Generate images*"]},{"cell_type":"code","metadata":{"id":"JLnxHiTl_o_r","executionInfo":{"status":"ok","timestamp":1621875224714,"user_tz":300,"elapsed":9,"user":{"displayName":"David Romero","photoUrl":"https://lh3.googleusercontent.com/-Jd7jurtBJ_U/AAAAAAAAAAI/AAAAAAAAAAY/2-9-ojiMuQQ/s64/photo.jpg","userId":"14069976265074426616"}}},"source":["def generate_images(gs, seeds, truncation_psi):\n","    noise_vars = [var for name, var in Gs.components.synthesis.vars.items() if name.startswith('noise')]\n","    Gs_kwargs = dnnlib.EasyDict()\n","    Gs_kwargs.output_transform = dict(func=tflib.convert_images_to_uint8, nchw_to_nhwc=True)\n","    Gs_kwargs.randomize_noise = False\n","    if truncation_psi is not None:\n","        Gs_kwargs.truncation_psi = truncation_psi\n","    for seed_idx, seed in enumerate(seeds):\n","        print('Generating image for seed %d/%d ...' % (seed_idx, len(seeds)))\n","        rnd = np.random.RandomState()\n","        tflib.set_vars({var: rnd.randn(*var.shape.as_list()) for var in noise_vars}) # [height, width]\n","        images = Gs.run(seed, None, **Gs_kwargs) # [minibatch, height, width, channel]\n","        path = f\"/content/out/image{seed_idx}.png\"\n","        PIL.Image.fromarray(images[0], 'RGB').save(path)"],"execution_count":12,"outputs":[]},{"cell_type":"markdown","metadata":{"id":"2nGV2FWF_183"},"source":["*Load network*"]},{"cell_type":"code","metadata":{"colab":{"base_uri":"https://localhost:8080/"},"id":"4MQTUMI4_0CR","executionInfo":{"status":"ok","timestamp":1621875235848,"user_tz":300,"elapsed":11142,"user":{"displayName":"David Romero","photoUrl":"https://lh3.googleusercontent.com/-Jd7jurtBJ_U/AAAAAAAAAAI/AAAAAAAAAAY/2-9-ojiMuQQ/s64/photo.jpg","userId":"14069976265074426616"}},"outputId":"046932e0-d248-4289-a037-30b22f3c5fa2"},"source":["network_pkl = \"gdrive:networks/stylegan2-ffhq-config-f.pkl\"\n","print('Loading networks from \"%s\"...' % network_pkl)\n","_G, _D, Gs = pretrained_networks.load_networks(network_pkl)"],"execution_count":13,"outputs":[{"output_type":"stream","text":["Loading networks from \"gdrive:networks/stylegan2-ffhq-config-f.pkl\"...\n","Setting up TensorFlow plugin \"fused_bias_act.cu\": Preprocessing... Loading... Done.\n","Setting up TensorFlow plugin \"upfirdn_2d.cu\": Preprocessing... Loading... Done.\n"],"name":"stdout"}]},{"cell_type":"markdown","metadata":{"id":"OHjv-Zcf_53X"},"source":["*Input shape*"]},{"cell_type":"code","metadata":{"id":"TEwjVmo7_0na","executionInfo":{"status":"ok","timestamp":1621875235849,"user_tz":300,"elapsed":8,"user":{"displayName":"David Romero","photoUrl":"https://lh3.googleusercontent.com/-Jd7jurtBJ_U/AAAAAAAAAAI/AAAAAAAAAAY/2-9-ojiMuQQ/s64/photo.jpg","userId":"14069976265074426616"}}},"source":["vector_size = Gs.input_shape[1:][0]"],"execution_count":14,"outputs":[]},{"cell_type":"markdown","metadata":{"id":"4i6U3QIs_9Y4"},"source":["*Create new output folder*"]},{"cell_type":"code","metadata":{"id":"0eG-MTmL_74y","executionInfo":{"status":"ok","timestamp":1621875235849,"user_tz":300,"elapsed":7,"user":{"displayName":"David Romero","photoUrl":"https://lh3.googleusercontent.com/-Jd7jurtBJ_U/AAAAAAAAAAI/AAAAAAAAAAY/2-9-ojiMuQQ/s64/photo.jpg","userId":"14069976265074426616"}}},"source":["!mkdir /content/out"],"execution_count":15,"outputs":[]},{"cell_type":"markdown","metadata":{"id":"G6pf0rLPAGBf"},"source":["*Seeds*"]},{"cell_type":"code","metadata":{"id":"B_zoNkg1AAcD","executionInfo":{"status":"ok","timestamp":1621875235850,"user_tz":300,"elapsed":6,"user":{"displayName":"David Romero","photoUrl":"https://lh3.googleusercontent.com/-Jd7jurtBJ_U/AAAAAAAAAAI/AAAAAAAAAAY/2-9-ojiMuQQ/s64/photo.jpg","userId":"14069976265074426616"}}},"source":["seeds = seeder([6, 5], vector_size)"],"execution_count":16,"outputs":[]},{"cell_type":"markdown","metadata":{"id":"snllWqNEAR0w"},"source":["*Process*"]},{"cell_type":"code","metadata":{"id":"z8I092geALBL","executionInfo":{"status":"ok","timestamp":1621875235850,"user_tz":300,"elapsed":6,"user":{"displayName":"David Romero","photoUrl":"https://lh3.googleusercontent.com/-Jd7jurtBJ_U/AAAAAAAAAAI/AAAAAAAAAAY/2-9-ojiMuQQ/s64/photo.jpg","userId":"14069976265074426616"}}},"source":["STEPS = 300\n","diff = seeds[1] - seeds[0]\n","step = diff / STEPS\n","current = seeds[0].copy()\n","seeds2 = []\n","for i in range(STEPS):\n","    seeds2.append(current)\n","    current = current + step"],"execution_count":17,"outputs":[]},{"cell_type":"markdown","metadata":{"id":"AaAK6q6CAVBH"},"source":["*Generate images with seeds*"]},{"cell_type":"code","metadata":{"colab":{"base_uri":"https://localhost:8080/"},"id":"kED77mbvASm6","executionInfo":{"status":"ok","timestamp":1621875441193,"user_tz":300,"elapsed":205349,"user":{"displayName":"David Romero","photoUrl":"https://lh3.googleusercontent.com/-Jd7jurtBJ_U/AAAAAAAAAAI/AAAAAAAAAAY/2-9-ojiMuQQ/s64/photo.jpg","userId":"14069976265074426616"}},"outputId":"04a05591-4904-4841-a503-d5b385ef50b7"},"source":["generate_images(Gs, seeds2, truncation_psi=0.4)"],"execution_count":18,"outputs":[{"output_type":"stream","text":["Generating image for seed 0/300 ...\n","Generating image for seed 1/300 ...\n","Generating image for seed 2/300 ...\n","Generating image for seed 3/300 ...\n","Generating image for seed 4/300 ...\n","Generating image for seed 5/300 ...\n","Generating image for seed 6/300 ...\n","Generating image for seed 7/300 ...\n","Generating image for seed 8/300 ...\n","Generating image for seed 9/300 ...\n","Generating image for seed 10/300 ...\n","Generating image for seed 11/300 ...\n","Generating image for seed 12/300 ...\n","Generating image for seed 13/300 ...\n","Generating image for seed 14/300 ...\n","Generating image for seed 15/300 ...\n","Generating image for seed 16/300 ...\n","Generating image for seed 17/300 ...\n","Generating image for seed 18/300 ...\n","Generating image for seed 19/300 ...\n","Generating image for seed 20/300 ...\n","Generating image for seed 21/300 ...\n","Generating image for seed 22/300 ...\n","Generating image for seed 23/300 ...\n","Generating image for seed 24/300 ...\n","Generating image for seed 25/300 ...\n","Generating image for seed 26/300 ...\n","Generating image for seed 27/300 ...\n","Generating image for seed 28/300 ...\n","Generating image for seed 29/300 ...\n","Generating image for seed 30/300 ...\n","Generating image for seed 31/300 ...\n","Generating image for seed 32/300 ...\n","Generating image for seed 33/300 ...\n","Generating image for seed 34/300 ...\n","Generating image for seed 35/300 ...\n","Generating image for seed 36/300 ...\n","Generating image for seed 37/300 ...\n","Generating image for seed 38/300 ...\n","Generating image for seed 39/300 ...\n","Generating image for seed 40/300 ...\n","Generating image for seed 41/300 ...\n","Generating image for seed 42/300 ...\n","Generating image for seed 43/300 ...\n","Generating image for seed 44/300 ...\n","Generating image for seed 45/300 ...\n","Generating image for seed 46/300 ...\n","Generating image for seed 47/300 ...\n","Generating image for seed 48/300 ...\n","Generating image for seed 49/300 ...\n","Generating image for seed 50/300 ...\n","Generating image for seed 51/300 ...\n","Generating image for seed 52/300 ...\n","Generating image for seed 53/300 ...\n","Generating image for seed 54/300 ...\n","Generating image for seed 55/300 ...\n","Generating image for seed 56/300 ...\n","Generating image for seed 57/300 ...\n","Generating image for seed 58/300 ...\n","Generating image for seed 59/300 ...\n","Generating image for seed 60/300 ...\n","Generating image for seed 61/300 ...\n","Generating image for seed 62/300 ...\n","Generating image for seed 63/300 ...\n","Generating image for seed 64/300 ...\n","Generating image for seed 65/300 ...\n","Generating image for seed 66/300 ...\n","Generating image for seed 67/300 ...\n","Generating image for seed 68/300 ...\n","Generating image for seed 69/300 ...\n","Generating image for seed 70/300 ...\n","Generating image for seed 71/300 ...\n","Generating image for seed 72/300 ...\n","Generating image for seed 73/300 ...\n","Generating image for seed 74/300 ...\n","Generating image for seed 75/300 ...\n","Generating image for seed 76/300 ...\n","Generating image for seed 77/300 ...\n","Generating image for seed 78/300 ...\n","Generating image for seed 79/300 ...\n","Generating image for seed 80/300 ...\n","Generating image for seed 81/300 ...\n","Generating image for seed 82/300 ...\n","Generating image for seed 83/300 ...\n","Generating image for seed 84/300 ...\n","Generating image for seed 85/300 ...\n","Generating image for seed 86/300 ...\n","Generating image for seed 87/300 ...\n","Generating image for seed 88/300 ...\n","Generating image for seed 89/300 ...\n","Generating image for seed 90/300 ...\n","Generating image for seed 91/300 ...\n","Generating image for seed 92/300 ...\n","Generating image for seed 93/300 ...\n","Generating image for seed 94/300 ...\n","Generating image for seed 95/300 ...\n","Generating image for seed 96/300 ...\n","Generating image for seed 97/300 ...\n","Generating image for seed 98/300 ...\n","Generating image for seed 99/300 ...\n","Generating image for seed 100/300 ...\n","Generating image for seed 101/300 ...\n","Generating image for seed 102/300 ...\n","Generating image for seed 103/300 ...\n","Generating image for seed 104/300 ...\n","Generating image for seed 105/300 ...\n","Generating image for seed 106/300 ...\n","Generating image for seed 107/300 ...\n","Generating image for seed 108/300 ...\n","Generating image for seed 109/300 ...\n","Generating image for seed 110/300 ...\n","Generating image for seed 111/300 ...\n","Generating image for seed 112/300 ...\n","Generating image for seed 113/300 ...\n","Generating image for seed 114/300 ...\n","Generating image for seed 115/300 ...\n","Generating image for seed 116/300 ...\n","Generating image for seed 117/300 ...\n","Generating image for seed 118/300 ...\n","Generating image for seed 119/300 ...\n","Generating image for seed 120/300 ...\n","Generating image for seed 121/300 ...\n","Generating image for seed 122/300 ...\n","Generating image for seed 123/300 ...\n","Generating image for seed 124/300 ...\n","Generating image for seed 125/300 ...\n","Generating image for seed 126/300 ...\n","Generating image for seed 127/300 ...\n","Generating image for seed 128/300 ...\n","Generating image for seed 129/300 ...\n","Generating image for seed 130/300 ...\n","Generating image for seed 131/300 ...\n","Generating image for seed 132/300 ...\n","Generating image for seed 133/300 ...\n","Generating image for seed 134/300 ...\n","Generating image for seed 135/300 ...\n","Generating image for seed 136/300 ...\n","Generating image for seed 137/300 ...\n","Generating image for seed 138/300 ...\n","Generating image for seed 139/300 ...\n","Generating image for seed 140/300 ...\n","Generating image for seed 141/300 ...\n","Generating image for seed 142/300 ...\n","Generating image for seed 143/300 ...\n","Generating image for seed 144/300 ...\n","Generating image for seed 145/300 ...\n","Generating image for seed 146/300 ...\n","Generating image for seed 147/300 ...\n","Generating image for seed 148/300 ...\n","Generating image for seed 149/300 ...\n","Generating image for seed 150/300 ...\n","Generating image for seed 151/300 ...\n","Generating image for seed 152/300 ...\n","Generating image for seed 153/300 ...\n","Generating image for seed 154/300 ...\n","Generating image for seed 155/300 ...\n","Generating image for seed 156/300 ...\n","Generating image for seed 157/300 ...\n","Generating image for seed 158/300 ...\n","Generating image for seed 159/300 ...\n","Generating image for seed 160/300 ...\n","Generating image for seed 161/300 ...\n","Generating image for seed 162/300 ...\n","Generating image for seed 163/300 ...\n","Generating image for seed 164/300 ...\n","Generating image for seed 165/300 ...\n","Generating image for seed 166/300 ...\n","Generating image for seed 167/300 ...\n","Generating image for seed 168/300 ...\n","Generating image for seed 169/300 ...\n","Generating image for seed 170/300 ...\n","Generating image for seed 171/300 ...\n","Generating image for seed 172/300 ...\n","Generating image for seed 173/300 ...\n","Generating image for seed 174/300 ...\n","Generating image for seed 175/300 ...\n","Generating image for seed 176/300 ...\n","Generating image for seed 177/300 ...\n","Generating image for seed 178/300 ...\n","Generating image for seed 179/300 ...\n","Generating image for seed 180/300 ...\n","Generating image for seed 181/300 ...\n","Generating image for seed 182/300 ...\n","Generating image for seed 183/300 ...\n","Generating image for seed 184/300 ...\n","Generating image for seed 185/300 ...\n","Generating image for seed 186/300 ...\n","Generating image for seed 187/300 ...\n","Generating image for seed 188/300 ...\n","Generating image for seed 189/300 ...\n","Generating image for seed 190/300 ...\n","Generating image for seed 191/300 ...\n","Generating image for seed 192/300 ...\n","Generating image for seed 193/300 ...\n","Generating image for seed 194/300 ...\n","Generating image for seed 195/300 ...\n","Generating image for seed 196/300 ...\n","Generating image for seed 197/300 ...\n","Generating image for seed 198/300 ...\n","Generating image for seed 199/300 ...\n","Generating image for seed 200/300 ...\n","Generating image for seed 201/300 ...\n","Generating image for seed 202/300 ...\n","Generating image for seed 203/300 ...\n","Generating image for seed 204/300 ...\n","Generating image for seed 205/300 ...\n","Generating image for seed 206/300 ...\n","Generating image for seed 207/300 ...\n","Generating image for seed 208/300 ...\n","Generating image for seed 209/300 ...\n","Generating image for seed 210/300 ...\n","Generating image for seed 211/300 ...\n","Generating image for seed 212/300 ...\n","Generating image for seed 213/300 ...\n","Generating image for seed 214/300 ...\n","Generating image for seed 215/300 ...\n","Generating image for seed 216/300 ...\n","Generating image for seed 217/300 ...\n","Generating image for seed 218/300 ...\n","Generating image for seed 219/300 ...\n","Generating image for seed 220/300 ...\n","Generating image for seed 221/300 ...\n","Generating image for seed 222/300 ...\n","Generating image for seed 223/300 ...\n","Generating image for seed 224/300 ...\n","Generating image for seed 225/300 ...\n","Generating image for seed 226/300 ...\n","Generating image for seed 227/300 ...\n","Generating image for seed 228/300 ...\n","Generating image for seed 229/300 ...\n","Generating image for seed 230/300 ...\n","Generating image for seed 231/300 ...\n","Generating image for seed 232/300 ...\n","Generating image for seed 233/300 ...\n","Generating image for seed 234/300 ...\n","Generating image for seed 235/300 ...\n","Generating image for seed 236/300 ...\n","Generating image for seed 237/300 ...\n","Generating image for seed 238/300 ...\n","Generating image for seed 239/300 ...\n","Generating image for seed 240/300 ...\n","Generating image for seed 241/300 ...\n","Generating image for seed 242/300 ...\n","Generating image for seed 243/300 ...\n","Generating image for seed 244/300 ...\n","Generating image for seed 245/300 ...\n","Generating image for seed 246/300 ...\n","Generating image for seed 247/300 ...\n","Generating image for seed 248/300 ...\n","Generating image for seed 249/300 ...\n","Generating image for seed 250/300 ...\n","Generating image for seed 251/300 ...\n","Generating image for seed 252/300 ...\n","Generating image for seed 253/300 ...\n","Generating image for seed 254/300 ...\n","Generating image for seed 255/300 ...\n","Generating image for seed 256/300 ...\n","Generating image for seed 257/300 ...\n","Generating image for seed 258/300 ...\n","Generating image for seed 259/300 ...\n","Generating image for seed 260/300 ...\n","Generating image for seed 261/300 ...\n","Generating image for seed 262/300 ...\n","Generating image for seed 263/300 ...\n","Generating image for seed 264/300 ...\n","Generating image for seed 265/300 ...\n","Generating image for seed 266/300 ...\n","Generating image for seed 267/300 ...\n","Generating image for seed 268/300 ...\n","Generating image for seed 269/300 ...\n","Generating image for seed 270/300 ...\n","Generating image for seed 271/300 ...\n","Generating image for seed 272/300 ...\n","Generating image for seed 273/300 ...\n","Generating image for seed 274/300 ...\n","Generating image for seed 275/300 ...\n","Generating image for seed 276/300 ...\n","Generating image for seed 277/300 ...\n","Generating image for seed 278/300 ...\n","Generating image for seed 279/300 ...\n","Generating image for seed 280/300 ...\n","Generating image for seed 281/300 ...\n","Generating image for seed 282/300 ...\n","Generating image for seed 283/300 ...\n","Generating image for seed 284/300 ...\n","Generating image for seed 285/300 ...\n","Generating image for seed 286/300 ...\n","Generating image for seed 287/300 ...\n","Generating image for seed 288/300 ...\n","Generating image for seed 289/300 ...\n","Generating image for seed 290/300 ...\n","Generating image for seed 291/300 ...\n","Generating image for seed 292/300 ...\n","Generating image for seed 293/300 ...\n","Generating image for seed 294/300 ...\n","Generating image for seed 295/300 ...\n","Generating image for seed 296/300 ...\n","Generating image for seed 297/300 ...\n","Generating image for seed 298/300 ...\n","Generating image for seed 299/300 ...\n"],"name":"stdout"}]},{"cell_type":"markdown","metadata":{"id":"4awAj1YTAcNe"},"source":["*Mix images into a video file*"]},{"cell_type":"code","metadata":{"colab":{"base_uri":"https://localhost:8080/"},"id":"-1WTfDZVAcYi","executionInfo":{"status":"ok","timestamp":1621875447873,"user_tz":300,"elapsed":6696,"user":{"displayName":"David Romero","photoUrl":"https://lh3.googleusercontent.com/-Jd7jurtBJ_U/AAAAAAAAAAI/AAAAAAAAAAY/2-9-ojiMuQQ/s64/photo.jpg","userId":"14069976265074426616"}},"outputId":"9040ec9d-f896-4e34-a301-2be6f13ea297"},"source":["!ffmpeg -r 50 \\\n","-i /content/out/image%d.png \\\n","-vcodec mpeg4 -y faces.mp4"],"execution_count":19,"outputs":[{"output_type":"stream","text":["ffmpeg version 3.4.8-0ubuntu0.2 Copyright (c) 2000-2020 the FFmpeg developers\n","  built with gcc 7 (Ubuntu 7.5.0-3ubuntu1~18.04)\n","  configuration: --prefix=/usr --extra-version=0ubuntu0.2 --toolchain=hardened --libdir=/usr/lib/x86_64-linux-gnu --incdir=/usr/include/x86_64-linux-gnu --enable-gpl --disable-stripping --enable-avresample --enable-avisynth --enable-gnutls --enable-ladspa --enable-libass --enable-libbluray --enable-libbs2b --enable-libcaca --enable-libcdio --enable-libflite --enable-libfontconfig --enable-libfreetype --enable-libfribidi --enable-libgme --enable-libgsm --enable-libmp3lame --enable-libmysofa --enable-libopenjpeg --enable-libopenmpt --enable-libopus --enable-libpulse --enable-librubberband --enable-librsvg --enable-libshine --enable-libsnappy --enable-libsoxr --enable-libspeex --enable-libssh --enable-libtheora --enable-libtwolame --enable-libvorbis --enable-libvpx --enable-libwavpack --enable-libwebp --enable-libx265 --enable-libxml2 --enable-libxvid --enable-libzmq --enable-libzvbi --enable-omx --enable-openal --enable-opengl --enable-sdl2 --enable-libdc1394 --enable-libdrm --enable-libiec61883 --enable-chromaprint --enable-frei0r --enable-libopencv --enable-libx264 --enable-shared\n","  libavutil      55. 78.100 / 55. 78.100\n","  libavcodec     57.107.100 / 57.107.100\n","  libavformat    57. 83.100 / 57. 83.100\n","  libavdevice    57. 10.100 / 57. 10.100\n","  libavfilter     6.107.100 /  6.107.100\n","  libavresample   3.  7.  0 /  3.  7.  0\n","  libswscale      4.  8.100 /  4.  8.100\n","  libswresample   2.  9.100 /  2.  9.100\n","  libpostproc    54.  7.100 / 54.  7.100\n","Input #0, image2, from '/content/out/image%d.png':\n","  Duration: 00:00:12.00, start: 0.000000, bitrate: N/A\n","    Stream #0:0: Video: png, rgb24(pc), 1024x1024, 25 fps, 25 tbr, 25 tbn, 25 tbc\n","Stream mapping:\n","  Stream #0:0 -> #0:0 (png (native) -> mpeg4 (native))\n","Press [q] to stop, [?] for help\n","Output #0, mp4, to 'faces.mp4':\n","  Metadata:\n","    encoder         : Lavf57.83.100\n","    Stream #0:0: Video: mpeg4 (mp4v / 0x7634706D), yuv420p, 1024x1024, q=2-31, 200 kb/s, 50 fps, 12800 tbn, 50 tbc\n","    Metadata:\n","      encoder         : Lavc57.107.100 mpeg4\n","    Side data:\n","      cpb: bitrate max/min/avg: 0/0/200000 buffer size: 0 vbv_delay: -1\n","\u001b[0;33mPast duration 0.999992 too large\n","    Last message repeated 19 times\n","\u001b[0;33mPast duration 0.999992 too large\n","    Last message repeated 23 times\n","\u001b[0;33mPast duration 0.999992 too large\n","    Last message repeated 23 times\n","\u001b[0;33mPast duration 0.999992 too large\n","    Last message repeated 23 times\n","\u001b[0;33mPast duration 0.999992 too large\n","    Last message repeated 23 times\n","\u001b[0;33mPast duration 0.999992 too large\n","    Last message repeated 22 times\n","\u001b[0;33mPast duration 0.999992 too large\n","    Last message repeated 23 times\n","\u001b[0;33mPast duration 0.999992 too large\n","    Last message repeated 23 times\n","\u001b[0;33mPast duration 0.999992 too large\n","    Last message repeated 23 times\n","\u001b[0;33mPast duration 0.999992 too large\n","    Last message repeated 23 times\n","\u001b[0;33mPast duration 0.999992 too large\n","    Last message repeated 22 times\n","\u001b[0;33mPast duration 0.999992 too large\n","    Last message repeated 22 times\n","\u001b[0;33mPast duration 0.999992 too large\n","    Last message repeated 17 times\n","frame=  301 fps= 45 q=24.8 Lsize=    2258kB time=00:00:06.00 bitrate=3082.5kbits/s dup=1 drop=0 speed=0.906x    \n","video:2256kB audio:0kB subtitle:0kB other streams:0kB global headers:0kB muxing overhead: 0.095162%\n"],"name":"stdout"}]}]}